<?xml version="1.0" encoding="UTF-8"?>
<svg id="Layer_1" xmlns="http://www.w3.org/2000/svg" version="1.1" viewBox="0 0 176.2 57.04">
  <!-- Generator: Adobe Illustrator 30.2.1, SVG Export Plug-In . SVG Version: 2.1.1 Build 1)  -->
  <defs>
    <style>
      .st0 {
        fill: #f37221;
      }

      .st1 {
        fill: #163a66;
      }
    </style>
  </defs>
  <g>
    <path class="st1" d="M169.24,32.29l-.08-16.61-9.66,14.66c-.89.12-1.84.15-2.69-.01l-10.43-15.6-.03,17.59h-6.72s0-25.46,0-25.46h9.33s9.23,14.13,9.23,14.13l9.41-14.12h8.59s-.01,25.48-.01,25.48l-6.94-.04Z"/>
    <path class="st1" d="M127.16,22.73h-7.84s0-5.54,0-5.54h14.44s.05,14.16.05,14.16c-4.63,1.27-9.35,1.62-14.15,1.49-3.49.03-6.86-.55-9.92-2.05-4.46-2.22-6.72-6.54-6.57-11.44.13-4.16,2.06-7.83,5.64-10.12,4.9-3.14,12.08-2.99,17.81-2.66l6.26.36v6.18c-6.25-.94-21.74-3.55-22.03,6.27-.09,2.96,1.52,5.52,4.39,6.64,3.75,1.47,7.89,1.31,11.88.29l.04-3.59Z"/>
    <polygon class="st1" points="98.53 32.29 91.33 32.29 91.32 22.6 75.81 22.56 75.8 32.31 68.66 32.3 68.67 6.87 75.8 6.86 75.81 16.53 91.33 16.53 91.32 6.85 98.53 6.85 98.53 32.29"/>
    <path class="st1" d="M157.89,50.33l-2.44-2.85-3.28-.11-.04,2.99-2.4-.03v-8.91s7.93.02,7.93.02c1.54,0,2.58,1.3,2.67,2.56.11,1.49-.67,2.67-2.32,2.97l2.72,3.34c-.83.05-2.06.09-2.85.02ZM156.95,45.46c.47-.01,1.04-.83.98-1.19s-.64-1.01-1-1.02l-4.79-.11v2.45s4.81-.14,4.81-.14Z"/>
    <path class="st1" d="M92.58,50.42l-2.4-2.87-3.24-.1v2.95s-2.4-.05-2.4-.05v-8.92s7.45.02,7.45.02c1.52,0,2.69,1.08,2.87,2.34.21,1.51-.53,2.83-2.14,3.26l2.72,3.26-2.86.12ZM91.61,45.48c.4-.01.93-.87.86-1.23s-.65-.98-1.04-.99l-4.49-.09v2.43s4.67-.12,4.67-.12Z"/>
    <path class="st1" d="M128.56,46.91c-1.05,4.73-7.44,3.22-10.82,3.48v-8.96c2.44,0,4.8-.05,7.16.12,2.72.19,4.26,2.67,3.66,5.36ZM126.12,46.34c.19-.98-.08-2.26-1.22-2.64-1.51-.51-3.19-.43-4.77-.39l.03,5.2c2.15-.04,5.45.38,5.96-2.16Z"/>
    <path class="st1" d="M175.92,47.41c.41,4.35-7.25,3.27-10,2.6-.08-.62-.1-1.31-.06-2.07,1.27.41,7.46,1.55,7.49-.08,0-.23-.45-.69-.72-.73l-5.02-.73c-.95-.14-1.8-1.08-1.94-1.75-.89-4.29,6.9-3.71,9.56-2.91l-.12,2.04c-1.45-.42-6.37-1.37-7,.08-.1.22.48.73.75.77l4.74.6c1.3.16,2.2,1.07,2.3,2.16Z"/>
    <polygon class="st1" points="142.77 46.71 136.95 46.74 136.99 48.56 143.7 48.51 143.66 50.38 134.53 50.38 134.51 41.45 143.69 41.44 143.69 43.16 136.95 43.18 136.97 44.95 142.76 44.92 142.77 46.71"/>
    <path class="st1" d="M108.83,48.23l-5.39-.03-1.22,2.13c-.69.04-1.68.03-2.63-.01l4.94-8.86,3.11-.03,4.85,8.89-2.6.05-1.05-2.13ZM107.88,46.45l-1.76-3.42-1.86,3.42h3.62Z"/>
    <path class="st1" d="M74.72,50.26c-.66.09-1.56.11-2.41.08v-6.93s-3.58,0-3.58,0l-.07-1.98h9.78s.11,1.95.11,1.95l-3.85.04.03,6.84Z"/>
  </g>
  <path class="st1" d="M23.65,36.19l-.13,2.66c-2.88,2.2-5.92,3.99-9.39,5.49-4.32-5.79-5.61-12.87-5.65-20.1l-.05-12.31,8.35-3.6.06,4.99-3.4,1.49.06,11.48c.03,5.16,1.33,11.53,4.98,15.51l.08-35.7c0-2.54,2.17-4.44,4.5-4.64L39.73.04c1.95-.17,3.89.17,5.26,1.59.79.81,1.25,2.18,1.25,3.37l.06,15.8c.01,3.47-2.14,5.62-3.92,8.55l3.89.75c-.05,7.03.7,4.66-2.28,9.47-.79,1.28-1.69,2.35-2.74,3.37l-.06-16.98c-1.86,1.65-3.82,2.58-6.2,2.82l-4.41.45c-2.41.29-4.38,1.44-5.66,3.47-.64,1.02-1.21,2.15-1.27,3.47ZM38.98,3.11c.22-.02.61-.49.53-.67s-.41-.29-.81-.35c-.25-.04-.62.49-.55.76.05.19.51.28.83.25ZM36.08,3.48l.02-1.14-6.22.52c-.36.03-.72.51-.66.83.08.43.51.46.96.41l5.9-.63ZM38.08,22.55c1.64-1.23,2.68-2.96,3.13-5V4.81s-17.46,1.71-17.46,1.71v20.36c5.88-4.28,9.23-1.4,14.33-4.33Z"/>
  <path class="st0" d="M34.66,44.1c.53-.54-.66-2.14.62-3.56.53-.58,1.39-.81,2.26-.75,1.41.1,2.31,1.26,2.21,2.67-.05.77-.44,1.53-.99,1.99-.63.52-1.55.46-2.43.3-1.74,2.03-3.63,3.85-5.74,5.68.77.23,1.99.83,2.81.42,9.03-4.55,16.26-13.6,17.44-23.61l-5.13.27,2.46-5.4,7.76-.59c.21,6.71-.44,11.71-3.64,17.67-4.08,7.59-10.48,12.73-17.52,17.35-.69.45-1.42.7-2.21.33l-10.57-5.01,4.08-2.42c2.7-1.6.88,2.51,8.6-5.32ZM38.59,42.33c0-.74-.6-1.35-1.35-1.35s-1.35.6-1.35,1.35.6,1.35,1.35,1.35,1.35-.6,1.35-1.35Z"/>
  <path class="st0" d="M27.33,37.14c-1.1-1.68-.59-3.61,1.02-4.24,1.22-.47,2.41-.15,3.2.7s.86,2.09.22,3.18c-.57.96-1.61,1.44-2.94,1.26-4.78,5.68-15.24,12.81-22.7,12.08-3.94-.38-6.58-3.5-6.05-7.43.6-4.42,4.46-10.33,6.92-14.42l.71,4.36c-1.39,2.88-5.21,8.57-3.2,11.75,1.84,2.91,7.35,2.41,9.97,1.54,4.18-1.4,7.8-3.83,10.91-6.87l1.96-1.91ZM30.88,35.38c0-.76-.62-1.38-1.38-1.38s-1.38.62-1.38,1.38.62,1.38,1.38,1.38,1.38-.62,1.38-1.38Z"/>
  <path class="st0" d="M58.03,23.36l-.84-7.14c.82-1.56,1.83-3.09,2.42-4.67,1.05-2.78-.14-5.38-2.85-6.53-1.9-.81-3.91-1.01-6.12-1.34,2.78-.91,5.72-1.21,8.58-.53,4.53,1.09,5.61,5.65,4.26,9.68-.74,2.2-1.76,4.23-2.93,6.22l-2.52,4.31Z"/>
  <path class="st0" d="M17.44,51.7c-1.87.56-3.61.97-5.61.57,9.82-2.66,17.33-8.47,23.22-16.9-.45-1.06-.51-2.13.19-2.99s1.79-1.09,2.9-.74c.92.29,1.55,1.22,1.61,2.41.04.8-.35,1.71-.93,2.18-.65.52-1.6.45-2.5.25-4.58,7.14-10.46,12.72-18.88,15.23ZM38.62,34c0-.72-.58-1.3-1.3-1.3s-1.3.58-1.3,1.3.58,1.3,1.3,1.3,1.3-.58,1.3-1.3Z"/>
  <path class="st0" d="M56.4,16.27c-1.63.13-2.92.31-4.54.63v-4.79s-4.07-1.78-4.07-1.78l-.06-4.95,3.08,1.31,5.57,2.5.02,7.09Z"/>
  <path class="st0" d="M37.6,20.71l-2.07,1.81-.02-13.83,3.73-.41-.06,9.87c0,.93-1.07,1.83-1.58,2.56Z"/>
  <polygon class="st0" points="34.21 22.46 30.64 22.85 30.48 12.6 33.94 12.22 34.21 22.46"/>
  <polygon class="st0" points="29.28 23 25.73 23.68 25.69 15.88 29.18 15.5 29.28 23"/>
</svg>
